{"title":"Ivan Vladimirov and Valeri Yordanov - Kecove (2011) XviD","uid":7832078,"size":1574659783,"categoryP":"video","categoryS":"movies","magnet":"?xt=urn:btih:e5c13ec0999179b127fdf74702eda92ccdb77f07&amp;dn=Ivan+Vladimirov+and+Valeri+Yordanov+-+Kecove+%282011%29+XviD&amp;tr=udp%3A%2F%2Ftracker.openbittorrent.com%3A80&amp;tr=udp%3A%2F%2Fopen.demonii.com%3A1337&amp;tr=udp%3A%2F%2Ftracker.coppersurfer.tk%3A6969&amp;tr=udp%3A%2F%2Fexodus.desync.com%3A6969","seeders":1,"leechers":0,"uploader":"rpessoa","files":4,"time":1353079742,"description":"The story of a Summer shared by six young people. It all begins with their escapes from the bleak and dreary City. Each one of them escapes East of Hell... to the point farthest away, the sea coast, a clean and pristine beach. The clean beach brings them together and reopens the prospective of hope to them all. But is such an escape at all possible? (IMDb)\n\n-----------\n\nFormat : AVI\nFormat/Info : Audio Video Interleave\nFile size : 1.46 GiB\nDuration : 1h 47mn\nOverall bit rate : 1 953 Kbps\nWriting application : VirtualDubMod 1.5.10.3 | www.virtualdub-fr.org || (build 2550/release)\nWriting library : VirtualDubMod build 2550/release\n\nVideo\nID : 0\nFormat : MPEG-4 Visual\nFormat profile : Advanced Simple@L5\nFormat settings, BVOP : 1\nFormat settings, QPel : No\nFormat settings, GMC : No warppoints\nFormat settings, Matrix : Default (MPEG)\nCodec ID : XVID\nCodec ID/Hint : XviD\nDuration : 1h 47mn\nBit rate : 1 751 Kbps\nWidth : 704 pixels\nHeight : 304 pixels\nDisplay aspect ratio : 2.35:1\nFrame rate : 25.000 fps\nColor space : YUV\nChroma subsampling : 4:2:0\nBit depth : 8 bits\nScan type : Progressive\nCompression mode : Lossy\nBits/(Pixel*Frame) : 0.327\nStream size : 1.31 GiB (90%)\nWriting library : XviD 1.2.1 (UTC 2008-12-04)\n\nAudio\nID : 1\nFormat : AC-3\nFormat/Info : Audio Coding 3\nMode extension : CM (complete main)\nCodec ID : 2000\nDuration : 1h 47mn\nBit rate mode : Constant\nBit rate : 192 Kbps\nChannel(s) : 2 channels\nChannel positions : Front: L R\nSampling rate : 48.0 KHz\nBit depth : 16 bits\nCompression mode : Lossy\nStream size : 147 MiB (10%)\nAlignment : Split accross interleaves\nInterleave, duration : 40 ms (1.00 video frame)\nInterleave, preload duration : 500 ms\n\nSubs: English and Portuguese\n\nThanks to exvet @ KG","torrent":{"xt":"urn:btih:e5c13ec0999179b127fdf74702eda92ccdb77f07","amp;dn":"Ivan+Vladimirov+and+Valeri+Yordanov+-+Kecove+%282011%29+XviD","amp;tr":["udp%3A%2F%2Ftracker.openbittorrent.com%3A80","udp%3A%2F%2Fopen.demonii.com%3A1337","udp%3A%2F%2Ftracker.coppersurfer.tk%3A6969","udp%3A%2F%2Fexodus.desync.com%3A6969"],"infoHash":"e5c13ec0999179b127fdf74702eda92ccdb77f07","infoHashBuffer":{"type":"Buffer","data":[229,193,62,192,153,145,121,177,39,253,247,71,2,237,169,44,205,183,127,7]},"announce":[],"urlList":[]}}